<?xml version="1.0" standalone="no"?>
<!DOCTYPE svg PUBLIC "-//W3C//DTD SVG 20010904//EN"
 "http://www.w3.org/TR/2001/REC-SVG-20010904/DTD/svg10.dtd">
<svg version="1.0" xmlns="http://www.w3.org/2000/svg"
 width="2025.000000pt" height="608.000000pt" viewBox="0 0 2025.000000 608.000000"
 preserveAspectRatio="xMidYMid meet">
<metadata>
Created by potrace 1.16, written by Peter Selinger 2001-2019
</metadata>
<g transform="translate(0.000000,608.000000) scale(0.100000,-0.100000)"
fill="#0000ff" stroke="none">
<path d="M475 6058 c-239 -66 -395 -226 -459 -469 -45 -172 15 -389 150 -537
137 -152 368 -230 559 -189 39 8 77 18 87 22 13 5 85 -96 352 -494 185 -275
336 -505 336 -510 0 -6 -15 -32 -34 -58 -81 -115 -116 -222 -116 -360 0 -108
18 -184 68 -283 67 -134 215 -258 360 -301 l42 -12 0 -827 0 -827 -62 -23
c-191 -68 -342 -234 -393 -431 -24 -89 -16 -259 15 -348 49 -137 169 -275 298
-340 187 -94 372 -94 562 1 97 49 217 171 264 270 96 201 83 423 -35 604 -73
112 -206 215 -323 249 l-41 12 -3 830 -2 829 52 17 c84 26 175 86 248 163 209
220 225 542 40 790 l-38 51 274 424 c152 233 299 461 329 506 l54 81 63 -20
c92 -31 258 -31 353 -1 207 66 372 242 421 449 33 143 6 318 -71 450 -44 75
-159 184 -240 226 -82 43 -212 78 -285 78 -73 0 -203 -35 -285 -78 -88 -45
-207 -162 -253 -249 -67 -126 -90 -300 -57 -428 19 -72 67 -177 101 -222 l25
-34 -332 -512 c-182 -281 -333 -513 -334 -515 -1 -1 -28 4 -61 13 -74 19 -222
19 -294 0 -30 -8 -58 -15 -62 -15 -7 0 -678 994 -678 1004 0 3 15 27 34 53
167 235 164 509 -8 741 -79 106 -196 181 -348 221 -95 26 -180 25 -273 -1z
m264 -436 c119 -97 96 -280 -44 -343 -147 -67 -312 68 -276 225 26 114 123
175 241 154 24 -5 60 -21 79 -36z m2651 23 c136 -69 148 -262 22 -350 -38 -26
-52 -30 -112 -30 -60 0 -74 4 -111 30 -78 55 -111 164 -75 248 43 100 180 150
276 102z m-1313 -2021 c59 -47 86 -106 80 -177 -9 -107 -78 -175 -185 -184
-70 -5 -130 22 -176 80 -25 31 -31 49 -34 102 -6 86 22 145 87 187 42 27 52
29 118 26 62 -3 77 -7 110 -34z m-41 -2825 c62 -19 124 -110 124 -182 0 -80
-41 -146 -114 -182 -54 -27 -90 -31 -148 -15 -122 34 -179 192 -109 302 54 84
138 111 247 77z"/>
<path d="M8465 4154 c-368 -66 -644 -291 -766 -625 -112 -306 -112 -721 0
-1030 110 -301 350 -517 667 -598 116 -30 204 -41 345 -41 148 0 267 18 400
61 l95 31 145 -95 c154 -101 224 -140 304 -167 l50 -17 82 157 81 157 -77 31
c-76 32 -215 107 -259 141 l-24 17 58 80 c150 208 214 434 214 759 0 308 -55
523 -185 720 -149 228 -381 373 -666 420 -117 19 -355 18 -464 -1z m399 -384
c217 -55 361 -208 428 -455 19 -70 22 -106 22 -295 0 -191 -2 -224 -22 -295
-25 -89 -88 -225 -124 -267 l-23 -28 -79 55 c-81 56 -227 133 -304 159 l-42
15 -54 -107 c-77 -153 -76 -143 -8 -170 74 -29 206 -104 205 -117 -1 -20 -107
-36 -208 -31 -270 12 -468 183 -547 471 -19 70 -22 107 -22 295 -1 254 11 324
80 467 99 207 287 321 530 322 59 1 118 -6 168 -19z"/>
<path d="M11565 4154 c-246 -44 -431 -167 -519 -345 -149 -302 -30 -638 282
-797 115 -59 215 -92 499 -166 296 -78 360 -106 414 -185 35 -50 39 -150 9
-219 -29 -68 -111 -144 -185 -171 -159 -60 -386 -45 -521 34 -84 50 -167 177
-195 301 -10 45 -16 54 -34 54 -26 0 -312 -27 -373 -36 l-43 -5 7 -37 c31
-183 107 -359 200 -460 109 -121 243 -195 429 -238 115 -27 472 -27 595 0 227
49 374 142 481 305 127 191 143 459 42 670 -26 56 -55 94 -112 151 -124 124
-248 178 -642 280 -337 88 -428 129 -469 215 -45 93 -12 184 87 237 75 41 154
58 273 58 235 0 346 -70 401 -252 l22 -70 136 6 c75 4 175 9 222 12 l86 6 -4
46 c-15 152 -83 301 -183 401 -110 110 -248 176 -434 206 -115 19 -363 18
-471 -1z"/>
<path d="M13915 4164 c-249 -36 -443 -130 -592 -287 -216 -228 -304 -480 -304
-872 -1 -246 36 -425 121 -597 57 -114 93 -163 195 -263 199 -196 440 -285
773 -285 571 0 959 325 1057 885 24 137 24 404 0 540 -65 368 -248 627 -548
775 -160 79 -263 102 -487 105 -102 2 -198 1 -215 -1z m337 -389 c218 -46 373
-204 440 -450 19 -70 22 -106 22 -295 1 -191 -2 -225 -21 -303 -78 -305 -298
-487 -588 -487 -294 0 -513 178 -597 485 -19 70 -22 107 -22 290 -1 186 2 220
21 298 63 247 205 399 427 457 87 23 225 25 318 5z"/>
<path d="M4842 3618 c182 -288 366 -579 409 -648 l79 -124 0 -473 0 -473 225
0 225 0 0 469 0 469 410 647 c226 356 410 649 410 651 0 2 -115 3 -256 2
l-256 -3 -257 -442 c-141 -243 -258 -442 -261 -442 -3 -1 -125 199 -270 444
l-265 445 -262 0 -262 0 331 -522z"/>
<path d="M6820 3020 l0 -1120 225 0 225 0 0 1120 0 1120 -225 0 -225 0 0
-1120z"/>
<path d="M10130 3020 l0 -1120 225 0 225 0 0 1120 0 1120 -225 0 -225 0 0
-1120z"/>
<path d="M15550 3020 l0 -1120 225 0 225 0 0 475 0 475 465 0 465 0 0 185 0
185 -465 0 -465 0 0 270 0 270 540 0 540 0 0 190 0 190 -765 0 -765 0 0 -1120z"/>
<path d="M17300 3950 l0 -190 335 0 335 0 0 -930 0 -930 220 0 220 0 0 930 0
930 335 0 335 0 0 190 0 190 -890 0 -890 0 0 -190z"/>
</g>
</svg>
